<svg width="250" height="250" fill="none" xmlns="http://www.w3.org/2000/svg"><rect width="249.316" height="249.316" rx="124.658" fill="#fff"/><path d="M157.407 83.035c-1.586-.982-3.294-1.475-5.002-1.475-2.293 0-4.574.865-6.502 2.592l-24.508 22.002c-1.354-.8-2.909-1.287-4.581-1.287H95.612a9.052 9.052 0 0 0-9.052 9.052v21.202c0 4.996 4.056 9.052 9.052 9.052h21.202a9.073 9.073 0 0 0 3.776-.842l25.308 22.697c3.361 3.019 7.807 3.453 11.51 1.128 3.703-2.305 6.032-6.996 6.032-12.119V95.163c-.001-5.113-2.324-9.792-6.033-12.128Z" fill="#010002"/><path d="M152.399 169.198c-2.493-.001-4.871-.953-6.876-2.754l-25.04-22.457a9.548 9.548 0 0 1-3.668.746H95.612c-5.3 0-9.612-4.312-9.612-9.612v-21.202c0-5.301 4.312-9.613 9.612-9.613h21.202c1.562 0 3.076.39 4.506 1.162l24.209-21.733c1.998-1.79 4.376-2.735 6.876-2.735 1.817 0 3.648.54 5.298 1.56 3.886 2.448 6.297 7.276 6.297 12.603v59.874c0 5.35-2.412 10.177-6.296 12.595-1.633 1.024-3.468 1.566-5.305 1.566Zm-31.708-26.531 25.581 22.943c1.797 1.614 3.915 2.466 6.127 2.467 1.626 0 3.255-.483 4.711-1.397 3.559-2.216 5.77-6.677 5.77-11.644V95.162c0-4.945-2.212-9.41-5.771-11.652-3.515-2.176-7.728-1.72-10.83 1.06l-24.814 22.275-.354-.209c-1.36-.802-2.804-1.209-4.296-1.209H95.612c-4.682 0-8.49 3.809-8.49 8.492v21.202c0 4.682 3.808 8.491 8.49 8.491h21.202a8.509 8.509 0 0 0 3.544-.792l.333-.153Z" fill="#010002"/></svg>